<svg preserveAspectRatio="none" width="100%" height="100%" overflow="visible" style="display: block;" viewBox="0 0 305.88 167.029" fill="none" xmlns="http://www.w3.org/2000/svg">
<g id="&#208;&#161;&#208;&#187;&#208;&#190;&#208;&#185;_x0020_1">
<path id="Vector" fill-rule="evenodd" clip-rule="evenodd" d="M184.091 123.974C179.203 135.564 167.032 144.284 153.028 144.287C134.103 144.291 119.084 129.105 118.899 110.206L96.1239 110.178C95.6343 141.585 122.017 167.126 153.024 167.029C170.444 166.974 184.851 159.002 193.166 150.365C203.176 139.967 208.459 129.807 209.879 110.271L187.055 110.175C186.602 115.83 186.131 119.138 184.091 123.974Z" fill="var(--fill-0, #D2D2D2)"/>
<path id="Vector_2" fill-rule="evenodd" clip-rule="evenodd" d="M184.091 68.9375C179.203 80.5268 167.032 89.2469 153.028 89.2499C134.103 89.2543 119.084 74.0677 118.899 55.1695L96.1239 55.141C95.6343 86.5482 122.017 112.089 153.024 111.992C170.444 111.937 184.851 103.965 193.166 95.3283C203.176 84.9304 208.459 74.7706 209.879 55.2341L187.055 55.1384C186.602 60.7935 186.131 64.101 184.091 68.9375Z" fill="var(--fill-0, #D2D2D2)"/>
<path id="Vector_3" fill-rule="evenodd" clip-rule="evenodd" d="M184.091 13.7992C179.203 25.3885 167.032 34.1086 153.028 34.1115C134.103 34.1159 119.084 18.9293 118.899 0.0311269L96.1239 0.00261014C95.6343 31.4098 122.017 56.9511 153.024 56.8534C170.444 56.7983 184.851 48.8268 193.166 40.1899C203.176 29.792 208.459 19.6322 209.879 0.0957572L187.055 0C186.602 5.65514 186.131 8.96262 184.091 13.7992Z" fill="var(--fill-0, #D2D2D2)"/>
<path id="Vector_4" fill-rule="evenodd" clip-rule="evenodd" d="M281.998 71.2151L281.679 71.5342C278.919 74.7862 255.216 98.4053 247.696 105.567L243 110.269L256.578 123.887C257.471 123.304 260.512 120.441 264.589 116.457L289.769 91.2404C292.137 88.8415 294.222 86.7264 295.835 85.092C297.429 83.4756 298.562 82.3295 299.051 81.844C309.47 71.4931 307.296 68.0596 297.068 58.0819C294.54 55.6152 291.519 52.7483 288.074 49.2781L266.561 27.7506L257.759 19L243.78 33.0274C256.519 45.7568 269.259 58.486 281.998 71.2151Z" fill="var(--fill-0, #D2D2D2)"/>
<path id="Vector_5" fill-rule="evenodd" clip-rule="evenodd" d="M23.8823 71.2151L24.201 71.5342C26.9611 74.7862 50.6638 98.4053 58.1845 105.567L62.88 110.269L49.302 123.887C48.4088 123.304 45.3682 120.441 41.2911 116.457L16.1108 91.2404C13.7428 88.8415 11.6579 86.7264 10.0454 85.092C8.45066 83.4756 7.31765 82.3295 6.82902 81.844C-3.58996 71.4931 -1.41595 68.0596 8.81181 58.0819C11.3404 55.6152 14.3615 52.7483 17.806 49.2781L39.3194 27.7506L48.1207 19L62.0996 33.0274C49.3605 45.7568 36.6215 58.486 23.8823 71.2151Z" fill="var(--fill-0, #D2D2D2)"/>
</g>
</svg>
