<svg preserveAspectRatio="none" width="100%" height="100%" overflow="visible" style="display: block;" viewBox="0 0 210 167.029" fill="none" xmlns="http://www.w3.org/2000/svg">
<g id="&#208;&#161;&#208;&#187;&#208;&#190;&#208;&#185;_x0020_1">
<path id="Vector" fill-rule="evenodd" clip-rule="evenodd" d="M136.091 123.974C131.203 135.564 119.032 144.284 105.028 144.287C86.1026 144.291 71.0843 129.105 70.8992 110.206L48.1239 110.178C47.6343 141.585 74.0167 167.126 105.024 167.029C122.444 166.974 136.851 159.002 145.166 150.365C155.176 139.967 160.459 129.807 161.879 110.271L139.055 110.175C138.602 115.83 138.131 119.138 136.091 123.974Z" fill="var(--fill-0, #D2D2D2)"/>
<path id="Vector_2" fill-rule="evenodd" clip-rule="evenodd" d="M136.091 68.9375C131.203 80.5268 119.032 89.2469 105.028 89.2499C86.1026 89.2543 71.0843 74.0677 70.8992 55.1695L48.1239 55.141C47.6343 86.5482 74.0167 112.089 105.024 111.992C122.444 111.937 136.851 103.965 145.166 95.3283C155.176 84.9304 160.459 74.7706 161.879 55.2341L139.055 55.1384C138.602 60.7935 138.131 64.101 136.091 68.9375Z" fill="var(--fill-0, #D2D2D2)"/>
<path id="Vector_3" fill-rule="evenodd" clip-rule="evenodd" d="M136.091 13.7992C131.203 25.3885 119.032 34.1086 105.028 34.1115C86.1026 34.1159 71.0843 18.9293 70.8992 0.0311269L48.1239 0.00261014C47.6343 31.4098 74.0167 56.9511 105.024 56.8534C122.444 56.7983 136.851 48.8268 145.166 40.1899C155.176 29.792 160.459 19.6322 161.879 0.0957572L139.055 0C138.602 5.65514 138.131 8.96262 136.091 13.7992Z" fill="var(--fill-0, #D2D2D2)"/>
<path id="Vector_4" fill-rule="evenodd" clip-rule="evenodd" d="M186.118 52.3108L185.799 52.6299C183.039 55.8819 159.336 79.501 151.816 86.6623L147.12 91.3644L160.698 104.982C161.591 104.4 164.632 101.537 168.709 97.5523L193.889 72.3361C196.257 69.9372 198.342 67.8221 199.955 66.1877C201.549 64.5713 202.682 63.4252 203.171 62.9397C213.59 52.5888 211.416 49.1553 201.188 39.1776C198.66 36.7109 195.639 33.844 192.194 30.3738L170.681 8.8463L161.879 0.0957163L147.9 14.123C160.639 26.8525 173.379 39.5817 186.118 52.3108Z" fill="var(--fill-0, #D2D2D2)"/>
<path id="Vector_5" fill-rule="evenodd" clip-rule="evenodd" d="M23.8823 52.3108L24.201 52.6299C26.9611 55.8819 50.6638 79.501 58.1845 86.6623L62.88 91.3644L49.302 104.982C48.4088 104.4 45.3682 101.537 41.2911 97.5523L16.1108 72.3361C13.7428 69.9372 11.6579 67.8221 10.0454 66.1877C8.45066 64.5713 7.31765 63.4252 6.82902 62.9397C-3.58996 52.5888 -1.41595 49.1553 8.81181 39.1776C11.3404 36.7109 14.3615 33.844 17.806 30.3738L39.3194 8.8463L48.1207 0.0957163L62.0996 14.123C49.3605 26.8525 36.6215 39.5817 23.8823 52.3108Z" fill="var(--fill-0, #D2D2D2)"/>
</g>
</svg>
