<svg width="194" height="168" viewBox="0 0 194 168" fill="none" xmlns="http://www.w3.org/2000/svg">
<path fill-rule="evenodd" clip-rule="evenodd" d="M128.091 123.974C123.203 135.564 111.032 144.284 97.0282 144.287C78.1026 144.291 63.0843 129.104 62.8992 110.206L40.1239 110.178C39.6343 141.585 66.0167 167.126 97.0243 167.029C114.444 166.973 128.851 159.002 137.166 150.365C147.176 139.967 152.459 129.807 153.879 110.271L131.055 110.175C130.602 115.83 130.131 119.138 128.091 123.974Z" fill="#D2D2D2"/>
<path fill-rule="evenodd" clip-rule="evenodd" d="M128.091 68.9375C123.203 80.5268 111.032 89.2469 97.0282 89.2499C78.1026 89.2543 63.0843 74.0677 62.8992 55.1695L40.1239 55.141C39.6343 86.5482 66.0167 112.089 97.0243 111.992C114.444 111.937 128.851 103.965 137.166 95.3283C147.176 84.9304 152.459 74.7706 153.879 55.2341L131.055 55.1384C130.602 60.7935 130.131 64.101 128.091 68.9375Z" fill="#D2D2D2"/>
<path fill-rule="evenodd" clip-rule="evenodd" d="M128.091 13.7992C123.203 25.3885 111.032 34.1086 97.0282 34.1115C78.1026 34.1159 63.0843 18.9293 62.8992 0.0311269L40.1239 0.00261014C39.6343 31.4098 66.0167 56.9511 97.0243 56.8534C114.444 56.7983 128.851 48.8268 137.166 40.1899C147.176 29.792 152.459 19.6322 153.879 0.0957572L131.055 0C130.602 5.65514 130.131 8.96262 128.091 13.7992Z" fill="#D2D2D2"/>
<path fill-rule="evenodd" clip-rule="evenodd" d="M169.998 71.2151L169.679 71.5342C166.919 74.7862 143.216 98.4053 135.696 105.567L131 110.269L144.578 123.887C145.471 123.304 148.512 120.441 152.589 116.457L177.769 91.2404C180.137 88.8415 182.222 86.7264 183.834 85.092C185.429 83.4756 186.562 82.3295 187.051 81.844C197.47 71.4931 195.296 68.0596 185.068 58.0819C182.54 55.6152 179.519 52.7483 176.074 49.2781L154.561 27.7506L145.759 19L131.78 33.0273C144.519 45.7568 157.259 58.486 169.998 71.2151Z" fill="#D2D2D2"/>
<path fill-rule="evenodd" clip-rule="evenodd" d="M23.8823 71.2151L24.201 71.5342C26.9611 74.7862 50.6638 98.4053 58.1845 105.567L62.88 110.269L49.3019 123.887C48.4088 123.304 45.3682 120.441 41.2911 116.457L16.1108 91.2404C13.7428 88.8415 11.6579 86.7264 10.0454 85.092C8.45066 83.4756 7.31765 82.3295 6.82902 81.844C-3.58996 71.4931 -1.41595 68.0596 8.81181 58.0819C11.3404 55.6152 14.3615 52.7483 17.806 49.2781L39.3194 27.7506L48.1207 19L62.0996 33.0273C49.3605 45.7568 36.6215 58.486 23.8823 71.2151Z" fill="#D2D2D2"/>
</svg>
