<svg width="306" height="168" viewBox="0 0 306 168" fill="none" xmlns="http://www.w3.org/2000/svg">
<path fill-rule="evenodd" clip-rule="evenodd" d="M184.091 123.974C179.203 135.563 167.032 144.283 153.028 144.286C134.103 144.291 119.084 129.104 118.899 110.206L96.1239 110.177C95.6343 141.585 122.017 167.126 153.024 167.028C170.444 166.973 184.851 159.002 193.166 150.365C203.176 139.967 208.459 129.807 209.879 110.271L187.055 110.175C186.602 115.83 186.131 119.138 184.091 123.974Z" fill="#D2D2D2"/>
<path fill-rule="evenodd" clip-rule="evenodd" d="M184.091 68.9375C179.203 80.5268 167.032 89.2469 153.028 89.2498C134.103 89.2542 119.084 74.0676 118.899 55.1694L96.1239 55.1409C95.6343 86.5481 122.017 112.089 153.024 111.992C170.444 111.937 184.851 103.965 193.166 95.3282C203.176 84.9303 208.459 74.7705 209.879 55.234L187.055 55.1383C186.602 60.7934 186.131 64.1009 184.091 68.9375Z" fill="#D2D2D2"/>
<path fill-rule="evenodd" clip-rule="evenodd" d="M184.091 13.7992C179.203 25.3885 167.032 34.1086 153.028 34.1115C134.103 34.1159 119.084 18.9293 118.899 0.0311269L96.1239 0.00261014C95.6343 31.4098 122.017 56.9511 153.024 56.8534C170.444 56.7983 184.851 48.8268 193.166 40.1899C203.176 29.792 208.459 19.6322 209.879 0.0957572L187.055 0C186.602 5.65514 186.131 8.96262 184.091 13.7992Z" fill="#D2D2D2"/>
<path fill-rule="evenodd" clip-rule="evenodd" d="M23.8822 71.6712L24.2009 71.352C26.9609 68.1 50.6637 44.481 58.1844 37.3197L62.8799 32.6176L49.3018 18.9997C48.4086 19.582 45.3681 22.445 41.2909 26.4297L16.1107 51.6458C13.7426 54.0448 11.6579 56.1598 10.0454 57.7942C8.45061 59.4107 7.31753 60.5568 6.8289 61.0423C-3.59008 71.3931 -1.41607 74.8266 8.81169 84.8043C11.3403 87.2711 14.3614 90.1379 17.8059 93.6082L39.3193 115.136L48.1206 123.886L62.0994 109.859C49.3604 97.1295 36.6214 84.4002 23.8822 71.6712Z" fill="#D2D2D2"/>
<path fill-rule="evenodd" clip-rule="evenodd" d="M281.998 71.6713L281.679 71.3522C278.919 68.1001 255.216 44.4811 247.695 37.3198L243 32.6177L256.578 18.9998C257.471 19.5821 260.512 22.4452 264.589 26.4298L289.769 51.646C292.137 54.0449 294.222 56.16 295.834 57.7944C297.429 59.4108 298.562 60.5569 299.051 61.0424C309.47 71.3932 307.296 74.8268 297.068 84.8044C294.539 87.2712 291.518 90.1381 288.074 93.6083L266.56 115.136L257.759 123.886L243.78 109.859C256.519 97.1296 269.258 84.4003 281.998 71.6713Z" fill="#D2D2D2"/>
</svg>
