<svg width="193" height="168" viewBox="0 0 193 168" fill="none" xmlns="http://www.w3.org/2000/svg">
<path fill-rule="evenodd" clip-rule="evenodd" d="M127.091 123.974C122.204 135.564 110.032 144.284 96.0285 144.287C77.1028 144.291 62.0845 129.104 61.8995 110.206L39.1241 110.178C38.6345 141.585 65.017 167.126 96.0245 167.029C113.444 166.973 127.852 159.002 136.166 150.365C146.176 139.967 151.459 129.807 152.88 110.271L130.056 110.175C129.602 115.83 129.131 119.138 127.091 123.974Z" fill="#D2D2D2"/>
<path fill-rule="evenodd" clip-rule="evenodd" d="M127.091 68.9375C122.204 80.5268 110.032 89.2469 96.0285 89.2499C77.1028 89.2543 62.0845 74.0677 61.8995 55.1695L39.1241 55.141C38.6345 86.5482 65.017 112.089 96.0245 111.992C113.444 111.937 127.852 103.965 136.166 95.3283C146.176 84.9304 151.459 74.7706 152.88 55.2341L130.056 55.1384C129.602 60.7935 129.131 64.101 127.091 68.9375Z" fill="#D2D2D2"/>
<path fill-rule="evenodd" clip-rule="evenodd" d="M127.091 13.7992C122.204 25.3885 110.032 34.1086 96.0285 34.1115C77.1028 34.1159 62.0845 18.9293 61.8995 0.0311269L39.1241 0.00261014C38.6345 31.4098 65.017 56.9511 96.0245 56.8534C113.444 56.7983 127.852 48.8268 136.166 40.1899C146.176 29.792 151.459 19.6322 152.88 0.0957572L130.056 0C129.602 5.65514 129.131 8.96262 127.091 13.7992Z" fill="#D2D2D2"/>
<path fill-rule="evenodd" clip-rule="evenodd" d="M23.8824 71.6714L24.2011 71.3523C26.9612 68.1003 50.6639 44.4812 58.1846 37.3199L62.8801 32.6178L49.3021 19C48.4089 19.5822 45.3683 22.4453 41.2912 26.4299L16.1109 51.6461C13.7429 54.045 11.6581 56.1601 10.0456 57.7945C8.45086 59.4109 7.31778 60.557 6.82914 61.0425C-3.58984 71.3934 -1.41582 74.8269 8.81193 84.8046C11.3405 87.2713 14.3616 90.1382 17.8061 93.6084L39.3195 115.136L48.1208 123.886L62.0997 109.859C49.3607 97.1297 36.6216 84.4005 23.8824 71.6714Z" fill="#D2D2D2"/>
<path fill-rule="evenodd" clip-rule="evenodd" d="M168.998 71.6714L168.679 71.3523C165.919 68.1003 142.216 44.4812 134.696 37.3199L130 32.6178L143.578 19C144.471 19.5822 147.512 22.4453 151.589 26.4299L176.769 51.6461C179.137 54.045 181.222 56.1601 182.835 57.7945C184.429 59.4109 185.562 60.557 186.051 61.0425C196.47 71.3934 194.296 74.8269 184.068 84.8046C181.54 87.2713 178.519 90.1382 175.074 93.6084L153.561 115.136L144.759 123.886L130.781 109.859C143.52 97.1297 156.259 84.4005 168.998 71.6714Z" fill="#D2D2D2"/>
</svg>
