<svg width="212" height="168" viewBox="0 0 212 168" fill="none" xmlns="http://www.w3.org/2000/svg">
<path fill-rule="evenodd" clip-rule="evenodd" d="M137.091 123.974C132.204 135.564 120.032 144.284 106.028 144.287C87.1028 144.291 72.0845 129.105 71.8995 110.206L49.1241 110.178C48.6345 141.585 75.017 167.126 106.025 167.029C123.444 166.974 137.852 159.002 146.166 150.365C156.176 139.967 161.459 129.807 162.88 110.271L140.056 110.175C139.602 115.83 139.131 119.138 137.091 123.974Z" fill="#D2D2D2"/>
<path fill-rule="evenodd" clip-rule="evenodd" d="M137.091 68.9375C132.204 80.5268 120.032 89.2469 106.028 89.2499C87.1028 89.2543 72.0845 74.0677 71.8995 55.1695L49.1241 55.141C48.6345 86.5482 75.017 112.089 106.025 111.992C123.444 111.937 137.852 103.965 146.166 95.3283C156.176 84.9304 161.459 74.7706 162.88 55.2341L140.056 55.1384C139.602 60.7935 139.131 64.101 137.091 68.9375Z" fill="#D2D2D2"/>
<path fill-rule="evenodd" clip-rule="evenodd" d="M137.091 13.7992C132.204 25.3885 120.032 34.1086 106.028 34.1115C87.1028 34.1159 72.0845 18.9293 71.8995 0.0311269L49.1241 0.00261014C48.6345 31.4098 75.017 56.9511 106.025 56.8534C123.444 56.7983 137.852 48.8268 146.166 40.1899C156.176 29.792 161.459 19.6322 162.88 0.0957572L140.056 0C139.602 5.65514 139.131 8.96262 137.091 13.7992Z" fill="#D2D2D2"/>
<path fill-rule="evenodd" clip-rule="evenodd" d="M23.8824 52.6715L24.2011 52.3523C26.9612 49.1003 50.6639 25.4813 58.1846 18.32L62.8801 13.6179L49.3021 3.05176e-05C48.4089 0.58226 45.3683 3.44534 41.2912 7.42998L16.1109 32.6461C13.7429 35.0451 11.6581 37.1601 10.0456 38.7945C8.45086 40.411 7.31778 41.5571 6.82914 42.0426C-3.58984 52.3934 -1.41582 55.827 8.81193 65.8046C11.3405 68.2714 14.3616 71.1382 17.8061 74.6085L39.3195 96.136L48.1208 104.887L62.0997 90.8592C49.3607 78.1298 36.6216 65.4005 23.8824 52.6715Z" fill="#D2D2D2"/>
<path fill-rule="evenodd" clip-rule="evenodd" d="M187.998 52.6715L187.679 52.3523C184.919 49.1003 161.216 25.4813 153.696 18.32L149 13.6179L162.578 3.05176e-05C163.471 0.58226 166.512 3.44534 170.589 7.42998L195.769 32.6461C198.137 35.0451 200.222 37.1601 201.835 38.7945C203.429 40.411 204.562 41.5571 205.051 42.0426C215.47 52.3934 213.296 55.827 203.068 65.8046C200.54 68.2714 197.519 71.1382 194.074 74.6085L172.561 96.136L163.759 104.887L149.781 90.8592C162.52 78.1298 175.259 65.4005 187.998 52.6715Z" fill="#D2D2D2"/>
</svg>
