<svg width="306" height="168" viewBox="0 0 306 168" fill="none" xmlns="http://www.w3.org/2000/svg">
<path fill-rule="evenodd" clip-rule="evenodd" d="M121.905 153.229C126.793 141.64 138.965 132.92 152.968 132.917C171.894 132.913 186.912 148.099 187.097 166.997L209.873 167.026C210.362 135.619 183.98 110.077 152.972 110.175C135.553 110.23 121.145 118.202 112.831 126.839C102.821 137.237 97.5377 147.396 96.1172 166.933L118.941 167.029C119.395 161.373 119.866 158.066 121.905 153.229Z" fill="#D2D2D2"/>
<path fill-rule="evenodd" clip-rule="evenodd" d="M184.091 68.9375C179.203 80.5268 167.032 89.2469 153.028 89.2498C134.103 89.2542 119.084 74.0676 118.899 55.1694L96.1239 55.1409C95.6343 86.5481 122.017 112.089 153.024 111.992C170.444 111.937 184.851 103.965 193.166 95.3282C203.176 84.9303 208.459 74.7705 209.879 55.234L187.055 55.1383C186.602 60.7934 186.131 64.1009 184.091 68.9375Z" fill="#D2D2D2"/>
<path fill-rule="evenodd" clip-rule="evenodd" d="M121.905 43.0545C126.793 31.4652 138.965 22.7451 152.968 22.7421C171.894 22.7377 186.912 37.9243 187.097 56.8225L209.873 56.851C210.362 25.4438 183.98 -0.0974617 152.972 0.000274658C135.553 0.0553246 121.145 8.02681 112.831 16.6637C102.821 27.0616 97.5377 37.2214 96.1172 56.7579L118.941 56.8536C119.395 51.1985 119.866 47.891 121.905 43.0545Z" fill="#D2D2D2"/>
<path fill-rule="evenodd" clip-rule="evenodd" d="M23.8823 71.6712L24.201 71.352C26.9611 68.1 50.6638 44.481 58.1845 37.3197L62.88 32.6176L49.302 18.9997C48.4088 19.582 45.3682 22.445 41.2911 26.4297L16.1108 51.6458C13.7428 54.0448 11.658 56.1598 10.0455 57.7942C8.45074 59.4107 7.31765 60.5568 6.82902 61.0423C-3.58996 71.3931 -1.41595 74.8266 8.81181 84.8043C11.3404 87.2711 14.3615 90.1379 17.806 93.6082L39.3194 115.136L48.1207 123.886L62.0996 109.859C49.3605 97.1295 36.6215 84.4002 23.8823 71.6712Z" fill="#D2D2D2"/>
<path fill-rule="evenodd" clip-rule="evenodd" d="M281.998 71.6713L281.679 71.3522C278.919 68.1001 255.216 44.4811 247.696 37.3198L243 32.6177L256.578 18.9998C257.471 19.5821 260.512 22.4452 264.589 26.4298L289.769 51.646C292.137 54.0449 294.222 56.16 295.835 57.7944C297.429 59.4108 298.562 60.5569 299.051 61.0424C309.47 71.3932 307.296 74.8268 297.068 84.8044C294.54 87.2712 291.519 90.1381 288.074 93.6083L266.561 115.136L257.759 123.886L243.78 109.859C256.519 97.1296 269.259 84.4003 281.998 71.6713Z" fill="#D2D2D2"/>
</svg>
