<svg width="306" height="168" viewBox="0 0 306 168" fill="none" xmlns="http://www.w3.org/2000/svg">
<path fill-rule="evenodd" clip-rule="evenodd" d="M121.905 153.23C126.793 141.64 138.965 132.92 152.968 132.917C171.894 132.913 186.912 148.099 187.097 166.998L209.873 167.026C210.362 135.619 183.98 110.078 152.972 110.175C135.553 110.231 121.145 118.202 112.831 126.839C102.821 137.237 97.5377 147.397 96.1172 166.933L118.941 167.029C119.395 161.374 119.866 158.066 121.905 153.23Z" fill="#D2D2D2"/>
<path fill-rule="evenodd" clip-rule="evenodd" d="M184.091 68.9375C179.203 80.5268 167.032 89.2469 153.028 89.2499C134.103 89.2543 119.084 74.0677 118.899 55.1695L96.1239 55.141C95.6343 86.5482 122.017 112.089 153.024 111.992C170.444 111.937 184.851 103.965 193.166 95.3283C203.176 84.9304 208.459 74.7706 209.879 55.2341L187.055 55.1384C186.602 60.7935 186.131 64.101 184.091 68.9375Z" fill="#D2D2D2"/>
<path fill-rule="evenodd" clip-rule="evenodd" d="M121.905 43.0545C126.793 31.4652 138.965 22.7451 152.968 22.7421C171.894 22.7377 186.912 37.9243 187.097 56.8225L209.873 56.851C210.362 25.4438 183.98 -0.0974617 152.972 0.000274658C135.553 0.0553246 121.145 8.02681 112.831 16.6637C102.821 27.0616 97.5377 37.2214 96.1172 56.7579L118.941 56.8536C119.395 51.1985 119.866 47.891 121.905 43.0545Z" fill="#D2D2D2"/>
<path fill-rule="evenodd" clip-rule="evenodd" d="M266.882 71.6714L267.201 71.3523C269.961 68.1003 293.664 44.4812 301.184 37.3199L305.88 32.6178L292.302 19C291.409 19.5822 288.368 22.4453 284.291 26.4299L259.111 51.6461C256.743 54.045 254.658 56.1601 253.046 57.7945C251.451 59.4109 250.318 60.557 249.829 61.0425C239.41 71.3934 241.584 74.8269 251.812 84.8046C254.34 87.2713 257.361 90.1382 260.806 93.6084L282.319 115.136L291.121 123.886L305.1 109.859C292.361 97.1297 279.622 84.4005 266.882 71.6714Z" fill="#D2D2D2"/>
<path fill-rule="evenodd" clip-rule="evenodd" d="M38.9977 71.6714L38.679 71.3523C35.9189 68.1003 12.2162 44.4812 4.69552 37.3199L0 32.6178L13.5781 19C14.4713 19.5822 17.5118 22.4453 21.589 26.4299L46.7692 51.6461C49.1372 54.045 51.2221 56.1601 52.8346 57.7945C54.4293 59.4109 55.5624 60.557 56.051 61.0425C66.47 71.3934 64.296 74.8269 54.0682 84.8046C51.5396 87.2713 48.5185 90.1382 45.074 93.6084L23.5606 115.136L14.7593 123.886L0.780449 109.859C13.5195 97.1297 26.2585 84.4005 38.9977 71.6714Z" fill="#D2D2D2"/>
</svg>
