<?xml version="1.0" encoding="UTF-8"?>
<!DOCTYPE svg PUBLIC "-//W3C//DTD SVG 1.1//EN" "http://www.w3.org/Graphics/SVG/1.1/DTD/svg11.dtd">
<!-- Creator: CorelDRAW -->
<svg xmlns="http://www.w3.org/2000/svg" xml:space="preserve" width="50mm" height="50mm" version="1.1" style="shape-rendering:geometricPrecision; text-rendering:geometricPrecision; image-rendering:optimizeQuality; fill-rule:evenodd; clip-rule:evenodd"
viewBox="0 0 5000 5000"
 xmlns:xlink="http://www.w3.org/1999/xlink"
 xmlns:xodm="http://www.corel.com/coreldraw/odm/2003">
 <defs>
  <style type="text/css">
   <![CDATA[
    .fil2 {fill:#FEFEFE}
    .fil1 {fill:#FEFEFE;fill-opacity:0.101961}
    .fil0 {fill:white;fill-opacity:0.101961}
   ]]>
  </style>
 </defs>
 <g id="Слой_x0020_1">
  <metadata id="CorelCorpID_0Corel-Layer"/>
  <g>
   <path class="fil0" d="M4055.88 487.35l-2986.68 0c-275,0 -499.99,224.99 -499.99,499.99l0 2986.68c0,275 224.99,499.99 499.99,499.99l2986.68 0c275,0 499.99,-224.99 499.99,-499.99l0 -2986.68c0,-275 -224.99,-499.99 -499.99,-499.99z"/>
   <path id="_1" class="fil1" d="M4055.88 487.35l-2986.68 0c-275,0 -499.99,224.99 -499.99,499.99l0 2986.68c0,275 224.99,499.99 499.99,499.99l2986.68 0c275,0 499.99,-224.99 499.99,-499.99l0 -2986.68c0,-275 -224.99,-499.99 -499.99,-499.99zm-2986.68 -75l2986.68 0c158.2,0 301.98,64.67 406.15,168.84 104.17,104.17 168.84,247.95 168.84,406.15l0 2986.68c0,158.2 -64.67,301.98 -168.84,406.15 -104.17,104.17 -247.95,168.84 -406.15,168.84l-2986.68 0c-158.2,0 -301.98,-64.67 -406.15,-168.84 -104.17,-104.17 -168.84,-247.95 -168.84,-406.15l0 -2986.68c0,-158.2 64.67,-301.98 168.84,-406.15 104.17,-104.17 247.95,-168.84 406.15,-168.84z"/>
  </g>
  <g>
   <path class="fil0" d="M13720.5 487.35l-2986.68 0c-275,0 -499.99,224.99 -499.99,499.99l0 2986.68c0,275 224.99,499.99 499.99,499.99l2986.68 0c275,0 499.99,-224.99 499.99,-499.99l0 -2986.68c0,-275 -224.99,-499.99 -499.99,-499.99z"/>
   <path id="_1_4" class="fil1" d="M13720.5 487.35l-2986.68 0c-275,0 -499.99,224.99 -499.99,499.99l0 2986.68c0,275 224.99,499.99 499.99,499.99l2986.68 0c275,0 499.99,-224.99 499.99,-499.99l0 -2986.68c0,-275 -224.99,-499.99 -499.99,-499.99zm-2986.68 -75l2986.68 0c158.2,0 301.98,64.67 406.15,168.84 104.17,104.17 168.84,247.95 168.84,406.15l0 2986.68c0,158.2 -64.67,301.98 -168.84,406.15 -104.17,104.17 -247.95,168.84 -406.15,168.84l-2986.68 0c-158.2,0 -301.98,-64.67 -406.15,-168.84 -104.17,-104.17 -168.84,-247.95 -168.84,-406.15l0 -2986.68c0,-158.2 64.67,-301.98 168.84,-406.15 104.17,-104.17 247.95,-168.84 406.15,-168.84z"/>
  </g>
  <g>
   <path class="fil2" d="M10699.27 1254.53l3055.78 0c48.64,0 92.82,19.87 124.81,51.86 31.99,31.99 51.86,76.17 51.86,124.81 0,48.62 -19.87,92.82 -51.86,124.81 -31.99,31.99 -76.17,51.86 -124.81,51.86l-3055.78 0c-48.62,0 -92.82,-19.87 -124.81,-51.86 -31.99,-31.99 -51.86,-76.19 -51.86,-124.81 0,-48.64 19.87,-92.82 51.86,-124.81 31.99,-31.99 76.19,-51.86 124.81,-51.86zm0 50l3055.78 0c69.67,0 126.67,57 126.67,126.67 0,69.67 -57,126.67 -126.67,126.67l-3055.78 0c-69.67,0 -126.67,-57 -126.67,-126.67 0,-69.67 57,-126.67 126.67,-126.67z"/>
  </g>
  <g>
   <path class="fil2" d="M10699.27 2304.01l3055.78 0c48.64,0 92.82,19.87 124.81,51.86 31.99,31.99 51.86,76.17 51.86,124.81 0,48.64 -19.87,92.82 -51.86,124.81 -31.99,31.99 -76.17,51.86 -124.81,51.86l-3055.78 0c-48.62,0 -92.82,-19.87 -124.81,-51.86 -31.99,-31.99 -51.86,-76.17 -51.86,-124.81 0,-48.64 19.87,-92.82 51.86,-124.81 31.99,-31.99 76.19,-51.86 124.81,-51.86zm0 50l3055.78 0c69.67,0 126.67,57 126.67,126.67 0,69.67 -57,126.67 -126.67,126.67l-3055.78 0c-69.67,0 -126.67,-57 -126.67,-126.67 0,-69.67 57,-126.67 126.67,-126.67z"/>
  </g>
  <g>
   <path class="fil2" d="M10699.27 3353.49l3055.78 0c48.64,0 92.82,19.87 124.81,51.86 31.99,31.99 51.86,76.19 51.86,124.81 0,48.64 -19.87,92.82 -51.86,124.81 -31.99,31.99 -76.17,51.86 -124.81,51.86l-3055.78 0c-48.62,0 -92.82,-19.87 -124.81,-51.86 -31.99,-31.99 -51.86,-76.17 -51.86,-124.81 0,-48.62 19.87,-92.82 51.86,-124.81 31.99,-31.99 76.19,-51.86 124.81,-51.86zm0 50l3055.78 0c69.67,0 126.67,57 126.67,126.67 0,69.67 -57,126.67 -126.67,126.67l-3055.78 0c-69.67,0 -126.67,-57 -126.67,-126.67 0,-69.67 57,-126.67 126.67,-126.67z"/>
  </g>
  <g>
   <path class="fil0" d="M8945.37 487.35l-2986.68 0c-275,0 -499.99,224.99 -499.99,499.99l0 2986.68c0,275 224.99,499.99 499.99,499.99l2986.68 0c275,0 499.99,-224.99 499.99,-499.99l0 -2986.68c0,-275 -224.99,-499.99 -499.99,-499.99z"/>
   <path id="_1_5" class="fil1" d="M8945.37 487.35l-2986.68 0c-275,0 -499.99,224.99 -499.99,499.99l0 2986.68c0,275 224.99,499.99 499.99,499.99l2986.68 0c275,0 499.99,-224.99 499.99,-499.99l0 -2986.68c0,-275 -224.99,-499.99 -499.99,-499.99zm-2986.68 -75l2986.68 0c158.2,0 301.98,64.67 406.15,168.84 104.17,104.17 168.84,247.95 168.84,406.15l0 2986.68c0,158.2 -64.67,301.98 -168.84,406.15 -104.17,104.17 -247.95,168.84 -406.15,168.84l-2986.68 0c-158.2,0 -301.98,-64.67 -406.15,-168.84 -104.17,-104.17 -168.84,-247.95 -168.84,-406.15l0 -2986.68c0,-158.2 64.67,-301.98 168.84,-406.15 104.17,-104.17 247.95,-168.84 406.15,-168.84z"/>
  </g>
  <g>
   <path class="fil2" d="M6197.63 3683.43c-90.36,0 -163.62,73.26 -163.62,163.62 0,90.36 73.26,163.62 163.62,163.62 90.36,0 163.62,-73.26 163.62,-163.62 0,-90.36 -73.26,-163.62 -163.62,-163.62zm-151.04 12.58c38.65,-38.65 92.06,-62.58 151.04,-62.58 58.98,0 112.4,23.93 151.05,62.58 38.65,38.65 62.57,92.06 62.57,151.04 0,58.97 -23.92,112.4 -62.57,151.05 -38.65,38.65 -92.08,62.57 -151.05,62.57 -58.98,0 -112.39,-23.92 -151.04,-62.57 -38.65,-38.65 -62.58,-92.07 -62.58,-151.05 0,-58.98 23.93,-112.39 62.58,-151.04z"/>
  </g>
  <g>
   <path class="fil2" d="M7452.03 3683.43c-90.36,0 -163.62,73.26 -163.62,163.62 0,90.36 73.26,163.62 163.62,163.62 90.36,0 163.62,-73.26 163.62,-163.62 0,-90.36 -73.26,-163.62 -163.62,-163.62zm-151.04 12.58c38.65,-38.65 92.06,-62.58 151.04,-62.58 58.98,0 112.4,23.93 151.05,62.58 38.65,38.65 62.57,92.06 62.57,151.04 0,58.97 -23.92,112.4 -62.57,151.05 -38.65,38.65 -92.08,62.57 -151.05,62.57 -58.98,0 -112.39,-23.92 -151.04,-62.57 -38.65,-38.65 -62.58,-92.07 -62.58,-151.05 0,-58.98 23.93,-112.39 62.58,-151.04z"/>
  </g>
  <g>
   <path class="fil2" d="M8706.43 3683.43c-90.36,0 -163.62,73.26 -163.62,163.62 0,90.36 73.26,163.62 163.62,163.62 90.36,0 163.62,-73.26 163.62,-163.62 0,-90.36 -73.26,-163.62 -163.62,-163.62zm-151.04 12.58c38.65,-38.65 92.06,-62.58 151.04,-62.58 58.98,0 112.4,23.93 151.05,62.58 38.65,38.65 62.57,92.06 62.57,151.04 0,58.97 -23.92,112.4 -62.57,151.05 -38.65,38.65 -92.08,62.57 -151.05,62.57 -58.98,0 -112.39,-23.92 -151.04,-62.57 -38.65,-38.65 -62.58,-92.07 -62.58,-151.05 0,-58.98 23.93,-112.39 62.58,-151.04z"/>
  </g>
  <g>
   <path class="fil2" d="M6812.19 3000.13c-90.36,0 -163.62,73.26 -163.62,163.62 0,90.36 73.26,163.62 163.62,163.62 90.36,0 163.62,-73.26 163.62,-163.62 0,-90.36 -73.26,-163.62 -163.62,-163.62zm-151.04 12.58c38.65,-38.65 92.06,-62.58 151.04,-62.58 58.98,0 112.4,23.93 151.05,62.58 38.65,38.65 62.57,92.06 62.57,151.04 0,58.97 -23.92,112.4 -62.57,151.05 -38.65,38.65 -92.08,62.57 -151.05,62.57 -58.98,0 -112.39,-23.92 -151.04,-62.57 -38.65,-38.65 -62.58,-92.07 -62.58,-151.05 0,-58.98 23.93,-112.39 62.58,-151.04z"/>
  </g>
  <g>
   <path class="fil2" d="M8066.59 3000.13c-90.36,0 -163.62,73.26 -163.62,163.62 0,90.36 73.26,163.62 163.62,163.62 90.36,0 163.62,-73.26 163.62,-163.62 0,-90.36 -73.26,-163.62 -163.62,-163.62zm-151.04 12.58c38.65,-38.65 92.06,-62.58 151.04,-62.58 58.98,0 112.4,23.93 151.05,62.58 38.65,38.65 62.57,92.06 62.57,151.04 0,58.97 -23.92,112.4 -62.57,151.05 -38.65,38.65 -92.08,62.57 -151.05,62.57 -58.98,0 -112.39,-23.92 -151.04,-62.57 -38.65,-38.65 -62.58,-92.07 -62.58,-151.05 0,-58.98 23.93,-112.39 62.58,-151.04z"/>
  </g>
  <g>
   <path class="fil2" d="M6197.63 2317.06c-90.36,0 -163.62,73.26 -163.62,163.62 0,90.36 73.26,163.62 163.62,163.62 90.36,0 163.62,-73.26 163.62,-163.62 0,-90.36 -73.26,-163.62 -163.62,-163.62zm-151.04 12.57c38.65,-38.65 92.06,-62.57 151.04,-62.57 58.97,0 112.4,23.92 151.05,62.57 38.65,38.65 62.57,92.08 62.57,151.05 0,58.97 -23.92,112.4 -62.57,151.05 -38.65,38.65 -92.08,62.57 -151.05,62.57 -58.98,0 -112.39,-23.92 -151.04,-62.57 -38.65,-38.65 -62.58,-92.07 -62.58,-151.05 0,-58.98 23.93,-112.4 62.58,-151.05z"/>
  </g>
  <g>
   <path class="fil2" d="M7452.03 2317.06c-90.36,0 -163.62,73.26 -163.62,163.62 0,90.36 73.26,163.62 163.62,163.62 90.36,0 163.62,-73.26 163.62,-163.62 0,-90.36 -73.26,-163.62 -163.62,-163.62zm-151.04 12.57c38.65,-38.65 92.06,-62.57 151.04,-62.57 58.97,0 112.4,23.92 151.05,62.57 38.65,38.65 62.57,92.08 62.57,151.05 0,58.97 -23.92,112.4 -62.57,151.05 -38.65,38.65 -92.08,62.57 -151.05,62.57 -58.98,0 -112.39,-23.92 -151.04,-62.57 -38.65,-38.65 -62.58,-92.07 -62.58,-151.05 0,-58.98 23.93,-112.4 62.58,-151.05z"/>
  </g>
  <g>
   <path class="fil2" d="M8706.43 2317.06c-90.36,0 -163.62,73.26 -163.62,163.62 0,90.36 73.26,163.62 163.62,163.62 90.36,0 163.62,-73.26 163.62,-163.62 0,-90.36 -73.26,-163.62 -163.62,-163.62zm-151.04 12.57c38.65,-38.65 92.06,-62.57 151.04,-62.57 58.97,0 112.4,23.92 151.05,62.57 38.65,38.65 62.57,92.08 62.57,151.05 0,58.97 -23.92,112.4 -62.57,151.05 -38.65,38.65 -92.08,62.57 -151.05,62.57 -58.98,0 -112.39,-23.92 -151.04,-62.57 -38.65,-38.65 -62.58,-92.07 -62.58,-151.05 0,-58.98 23.93,-112.4 62.58,-151.05z"/>
  </g>
  <g>
   <path class="fil2" d="M6812.19 1633.76c-90.36,0 -163.62,73.26 -163.62,163.62 0,90.36 73.26,163.62 163.62,163.62 90.36,0 163.62,-73.26 163.62,-163.62 0,-90.36 -73.26,-163.62 -163.62,-163.62zm-151.04 12.57c38.65,-38.65 92.06,-62.57 151.04,-62.57 58.97,0 112.4,23.92 151.05,62.57 38.65,38.65 62.57,92.08 62.57,151.05 0,58.98 -23.92,112.39 -62.57,151.04 -38.65,38.65 -92.07,62.58 -151.05,62.58 -58.98,0 -112.39,-23.93 -151.04,-62.58 -38.65,-38.65 -62.58,-92.06 -62.58,-151.04 0,-58.98 23.93,-112.4 62.58,-151.05z"/>
  </g>
  <g>
   <path class="fil2" d="M8066.59 1633.76c-90.36,0 -163.62,73.26 -163.62,163.62 0,90.36 73.26,163.62 163.62,163.62 90.36,0 163.62,-73.26 163.62,-163.62 0,-90.36 -73.26,-163.62 -163.62,-163.62zm-151.04 12.57c38.65,-38.65 92.06,-62.57 151.04,-62.57 58.97,0 112.4,23.92 151.05,62.57 38.65,38.65 62.57,92.08 62.57,151.05 0,58.98 -23.92,112.39 -62.57,151.04 -38.65,38.65 -92.07,62.58 -151.05,62.58 -58.98,0 -112.39,-23.93 -151.04,-62.58 -38.65,-38.65 -62.58,-92.06 -62.58,-151.04 0,-58.98 23.93,-112.4 62.58,-151.05z"/>
  </g>
  <g>
   <path class="fil2" d="M6197.63 935.39c-90.36,0 -163.62,73.26 -163.62,163.62 0,90.36 73.26,163.62 163.62,163.62 90.36,0 163.62,-73.26 163.62,-163.62 0,-90.36 -73.26,-163.62 -163.62,-163.62zm-151.04 12.57c38.65,-38.65 92.06,-62.57 151.04,-62.57 58.97,0 112.4,23.92 151.05,62.57 38.65,38.65 62.57,92.08 62.57,151.05 0,58.98 -23.92,112.39 -62.57,151.04 -38.65,38.65 -92.07,62.58 -151.05,62.58 -58.98,0 -112.39,-23.93 -151.04,-62.58 -38.65,-38.65 -62.58,-92.06 -62.58,-151.04 0,-58.98 23.93,-112.4 62.58,-151.05z"/>
  </g>
  <g>
   <path class="fil2" d="M7452.03 935.39c-90.36,0 -163.62,73.26 -163.62,163.62 0,90.36 73.26,163.62 163.62,163.62 90.36,0 163.62,-73.26 163.62,-163.62 0,-90.36 -73.26,-163.62 -163.62,-163.62zm-151.04 12.57c38.65,-38.65 92.06,-62.57 151.04,-62.57 58.97,0 112.4,23.92 151.05,62.57 38.65,38.65 62.57,92.08 62.57,151.05 0,58.98 -23.92,112.39 -62.57,151.04 -38.65,38.65 -92.07,62.58 -151.05,62.58 -58.98,0 -112.39,-23.93 -151.04,-62.58 -38.65,-38.65 -62.58,-92.06 -62.58,-151.04 0,-58.98 23.93,-112.4 62.58,-151.05z"/>
  </g>
  <g>
   <path class="fil2" d="M8706.43 935.39c-90.36,0 -163.62,73.26 -163.62,163.62 0,90.36 73.26,163.62 163.62,163.62 90.36,0 163.62,-73.26 163.62,-163.62 0,-90.36 -73.26,-163.62 -163.62,-163.62zm-151.04 12.57c38.65,-38.65 92.06,-62.57 151.04,-62.57 58.97,0 112.4,23.92 151.05,62.57 38.65,38.65 62.57,92.08 62.57,151.05 0,58.98 -23.92,112.39 -62.57,151.04 -38.65,38.65 -92.07,62.58 -151.05,62.58 -58.98,0 -112.39,-23.93 -151.04,-62.58 -38.65,-38.65 -62.58,-92.06 -62.58,-151.04 0,-58.98 23.93,-112.4 62.58,-151.05z"/>
  </g>
  <g>
   <path class="fil0" d="M18570.65 487.35l-2986.68 0c-275,0 -499.99,224.99 -499.99,499.99l0 2986.68c0,275 224.99,499.99 499.99,499.99l2986.68 0c275,0 499.99,-224.99 499.99,-499.99l0 -2986.68c0,-275 -224.99,-499.99 -499.99,-499.99z"/>
   <path id="_1_6" class="fil1" d="M18570.65 487.35l-2986.68 0c-275,0 -499.99,224.99 -499.99,499.99l0 2986.68c0,275 224.99,499.99 499.99,499.99l2986.68 0c275,0 499.99,-224.99 499.99,-499.99l0 -2986.68c0,-275 -224.99,-499.99 -499.99,-499.99zm-2986.68 -75l2986.68 0c158.2,0 301.98,64.67 406.15,168.84 104.17,104.17 168.84,247.95 168.84,406.15l0 2986.68c0,158.2 -64.67,301.98 -168.84,406.15 -104.17,104.17 -247.95,168.84 -406.15,168.84l-2986.68 0c-158.2,0 -301.98,-64.67 -406.15,-168.84 -104.17,-104.17 -168.84,-247.95 -168.84,-406.15l0 -2986.68c0,-158.2 64.67,-301.98 168.84,-406.15 104.17,-104.17 247.95,-168.84 406.15,-168.84z"/>
  </g>
  <g>
   <path class="fil2" d="M15549.42 1171.47l3055.78 0c48.64,0 92.82,19.87 124.81,51.86 31.99,31.99 51.86,76.17 51.86,124.81 0,48.62 -19.87,92.82 -51.86,124.81 -31.99,31.99 -76.17,51.86 -124.81,51.86l-3055.78 0c-48.62,0 -92.82,-19.87 -124.81,-51.86 -31.99,-31.99 -51.86,-76.19 -51.86,-124.81 0,-48.64 19.87,-92.82 51.86,-124.81 31.99,-31.99 76.19,-51.86 124.81,-51.86zm0 50l3055.78 0c69.67,0 126.67,57 126.67,126.67 0,69.67 -57,126.67 -126.67,126.67l-3055.78 0c-69.67,0 -126.67,-57 -126.67,-126.67 0,-69.67 57,-126.67 126.67,-126.67z"/>
  </g>
  <g>
   <path class="fil2" d="M15549.42 1924.81l3055.78 0c48.64,0 92.82,19.87 124.81,51.86 31.99,31.99 51.86,76.17 51.86,124.81 0,48.62 -19.87,92.82 -51.86,124.81 -31.99,31.99 -76.17,51.86 -124.81,51.86l-3055.78 0c-48.62,0 -92.82,-19.87 -124.81,-51.86 -31.99,-31.99 -51.86,-76.19 -51.86,-124.81 0,-48.64 19.87,-92.82 51.86,-124.81 31.99,-31.99 76.19,-51.86 124.81,-51.86zm0 50l3055.78 0c69.67,0 126.67,57 126.67,126.67 0,69.67 -57,126.67 -126.67,126.67l-3055.78 0c-69.67,0 -126.67,-57 -126.67,-126.67 0,-69.67 57,-126.67 126.67,-126.67z"/>
  </g>
  <g>
   <path class="fil2" d="M15549.42 2678.15l3055.78 0c48.64,0 92.82,19.87 124.81,51.86 31.99,31.99 51.86,76.19 51.86,124.81 0,48.64 -19.87,92.82 -51.86,124.81 -31.99,31.99 -76.17,51.86 -124.81,51.86l-3055.78 0c-48.62,0 -92.82,-19.87 -124.81,-51.86 -31.99,-31.99 -51.86,-76.17 -51.86,-124.81 0,-48.62 19.87,-92.82 51.86,-124.81 31.99,-31.99 76.19,-51.86 124.81,-51.86zm0 50l3055.78 0c69.67,0 126.67,57 126.67,126.67 0,69.67 -57,126.67 -126.67,126.67l-3055.78 0c-69.67,0 -126.67,-57 -126.67,-126.67 0,-69.67 57,-126.67 126.67,-126.67z"/>
  </g>
  <g>
   <path class="fil2" d="M15549.42 3431.49l3055.78 0c48.64,0 92.82,19.87 124.81,51.86 31.99,31.99 51.86,76.19 51.86,124.81 0,48.64 -19.87,92.82 -51.86,124.81 -31.99,31.99 -76.17,51.86 -124.81,51.86l-3055.78 0c-48.62,0 -92.82,-19.87 -124.81,-51.86 -31.99,-31.99 -51.86,-76.17 -51.86,-124.81 0,-48.62 19.87,-92.82 51.86,-124.81 31.99,-31.99 76.19,-51.86 124.81,-51.86zm0 50l3055.78 0c69.67,0 126.67,57 126.67,126.67 0,69.67 -57,126.67 -126.67,126.67l-3055.78 0c-69.67,0 -126.67,-57 -126.67,-126.67 0,-69.67 57,-126.67 126.67,-126.67z"/>
  </g>
  <g>
   <path class="fil0" d="M23420.8 487.35l-2986.68 0c-275,0 -499.99,224.99 -499.99,499.99l0 2986.68c0,275 224.99,499.99 499.99,499.99l2986.68 0c275,0 499.99,-224.99 499.99,-499.99l0 -2986.68c0,-275 -224.99,-499.99 -499.99,-499.99z"/>
   <path id="_1_7" class="fil1" d="M23420.8 487.35l-2986.68 0c-275,0 -499.99,224.99 -499.99,499.99l0 2986.68c0,275 224.99,499.99 499.99,499.99l2986.68 0c275,0 499.99,-224.99 499.99,-499.99l0 -2986.68c0,-275 -224.99,-499.99 -499.99,-499.99zm-2986.68 -75l2986.68 0c158.2,0 301.98,64.67 406.15,168.84 104.17,104.17 168.84,247.95 168.84,406.15l0 2986.68c0,158.2 -64.67,301.98 -168.84,406.15 -104.17,104.17 -247.95,168.84 -406.15,168.84l-2986.68 0c-158.2,0 -301.98,-64.67 -406.15,-168.84 -104.17,-104.17 -168.84,-247.95 -168.84,-406.15l0 -2986.68c0,-158.2 64.67,-301.98 168.84,-406.15 104.17,-104.17 247.95,-168.84 406.15,-168.84z"/>
  </g>
  <g>
   <path class="fil2" d="M20701.31 4008.57l0 -301.74 -301.74 0c-48.62,0 -92.82,-19.87 -124.81,-51.86 -31.99,-31.99 -51.86,-76.17 -51.86,-124.81 0,-48.62 19.87,-92.82 51.86,-124.81 31.99,-31.99 76.19,-51.86 124.81,-51.86l301.74 0 0 -696.14 -301.74 0c-48.62,0 -92.82,-19.87 -124.81,-51.86 -31.99,-31.99 -51.86,-76.17 -51.86,-124.81 0,-48.64 19.87,-92.82 51.86,-124.81 31.99,-31.99 76.19,-51.86 124.81,-51.86l301.74 0 0 -696.14 -301.74 0c-48.62,0 -92.82,-19.87 -124.81,-51.86 -31.99,-31.99 -51.86,-76.19 -51.86,-124.81 0,-48.64 19.87,-92.82 51.86,-124.81 31.99,-31.99 76.19,-51.86 124.81,-51.86l301.74 0 0 -301.74c0,-48.64 19.87,-92.82 51.86,-124.81 31.99,-31.99 76.19,-51.86 124.81,-51.86 48.64,0 92.82,19.87 124.81,51.86 31.99,31.99 51.86,76.17 51.86,124.81l0 301.74 696.14 0 0 -301.74c0,-48.64 19.87,-92.82 51.86,-124.81 31.99,-31.99 76.19,-51.86 124.81,-51.86 48.64,0 92.82,19.87 124.81,51.86 31.99,31.99 51.86,76.17 51.86,124.81l0 301.74 696.14 0 0 -301.74c0,-48.64 19.87,-92.82 51.86,-124.81 31.99,-31.99 76.19,-51.86 124.81,-51.86 48.64,0 92.82,19.87 124.81,51.86 31.99,31.99 51.86,76.17 51.86,124.81l0 301.74 301.74 0c48.64,0 92.82,19.87 124.81,51.86 31.99,31.99 51.86,76.17 51.86,124.81 0,48.62 -19.87,92.82 -51.86,124.81 -31.99,31.99 -76.17,51.86 -124.81,51.86l-301.74 0 0 696.14 301.74 0c48.64,0 92.82,19.87 124.81,51.86 31.99,31.99 51.86,76.17 51.86,124.81 0,48.64 -19.87,92.82 -51.86,124.81 -31.99,31.99 -76.17,51.86 -124.81,51.86l-301.74 0 0 696.14 301.74 0c48.64,0 92.82,19.87 124.81,51.86 31.99,31.99 51.86,76.19 51.86,124.81 0,48.64 -19.87,92.82 -51.86,124.81 -31.99,31.99 -76.17,51.86 -124.81,51.86l-301.74 0 0 301.74c0,48.64 -19.87,92.82 -51.86,124.81 -31.99,31.99 -76.17,51.86 -124.81,51.86 -48.62,0 -92.82,-19.87 -124.81,-51.86 -31.99,-31.99 -51.86,-76.17 -51.86,-124.81l0 -301.74 -696.14 0 0 301.74c0,48.64 -19.87,92.82 -51.86,124.81 -31.99,31.99 -76.17,51.86 -124.81,51.86 -48.62,0 -92.82,-19.87 -124.81,-51.86 -31.99,-31.99 -51.86,-76.17 -51.86,-124.81l0 -301.74 -696.14 0 0 301.74c0,48.64 -19.87,92.82 -51.86,124.81 -31.99,31.99 -76.17,51.86 -124.81,51.86 -48.62,0 -92.82,-19.87 -124.81,-51.86 -31.99,-31.99 -51.86,-76.17 -51.86,-124.81zm50 0l0 -351.74 -351.74 0c-69.67,0 -126.67,-57 -126.67,-126.67 0,-69.67 57,-126.67 126.67,-126.67l351.74 0 0 -796.14 -351.74 0c-69.67,0 -126.67,-57 -126.67,-126.67 0,-69.67 57,-126.67 126.67,-126.67l351.74 0 0 -796.14 -351.74 0c-69.67,0 -126.67,-57 -126.67,-126.67 0,-69.67 57,-126.67 126.67,-126.67l351.74 0 0 -351.74c0,-69.67 57,-126.67 126.67,-126.67 69.67,0 126.67,57 126.67,126.67l0 351.74 796.14 0 0 -351.74c0,-69.67 57,-126.67 126.67,-126.67 69.67,0 126.67,57 126.67,126.67l0 351.74 796.14 0 0 -351.74c0,-69.67 57,-126.67 126.67,-126.67 69.67,0 126.67,57 126.67,126.67l0 351.74 351.74 0c69.67,0 126.67,57 126.67,126.67 0,69.67 -57,126.67 -126.67,126.67l-351.74 0 0 796.14 351.74 0c69.67,0 126.67,57 126.67,126.67 0,69.67 -57,126.67 -126.67,126.67l-351.74 0 0 796.14 351.74 0c69.67,0 126.67,57 126.67,126.67 0,69.67 -57,126.67 -126.67,126.67l-351.74 0 0 351.74c0,69.67 -57,126.67 -126.67,126.67 -69.67,0 -126.67,-57 -126.67,-126.67l0 -351.74 -796.14 0 0 351.74c0,69.67 -57,126.67 -126.67,126.67 -69.67,0 -126.67,-57 -126.67,-126.67l0 -351.74 -796.14 0 0 351.74c0,69.67 -57,126.67 -126.67,126.67 -69.67,0 -126.67,-57 -126.67,-126.67zm2098.96 -605.08l0 -796.14 -796.14 0 0 796.14 796.14 0zm-1049.48 0l0 -796.14 -796.14 0 0 796.14 796.14 0zm1049.48 -1049.48l0 -796.14 -796.14 0 0 796.14 796.14 0zm-1049.48 0l0 -796.14 -796.14 0 0 796.14 796.14 0zm999.48 999.48l0 -696.14 -696.14 0 0 696.14 696.14 0zm-1049.48 0l0 -696.14 -696.14 0 0 696.14 696.14 0zm1049.48 -1049.48l0 -696.14 -696.14 0 0 696.14 696.14 0zm-1049.48 0l0 -696.14 -696.14 0 0 696.14 696.14 0z"/>
  </g>
 </g>
</svg>
